<?xml version="1.0" encoding="UTF-8" standalone="no"?>
<svg
   viewBox="0 0 512 512"
   width="100%"
   height="100%"
   version="1.1"
   id="svg16"
   sodipodi:docname="icon.svg"
   inkscape:version="1.2.2 (b0a8486541, 2022-12-01)"
   xmlns:inkscape="http://www.inkscape.org/namespaces/inkscape"
   xmlns:sodipodi="http://sodipodi.sourceforge.net/DTD/sodipodi-0.dtd"
   xmlns="http://www.w3.org/2000/svg"
   xmlns:svg="http://www.w3.org/2000/svg">
  <defs
     id="defs20" />
  <sodipodi:namedview
     id="namedview18"
     pagecolor="#ffffff"
     bordercolor="#000000"
     borderopacity="0.25"
     inkscape:showpageshadow="2"
     inkscape:pageopacity="0.0"
     inkscape:pagecheckerboard="0"
     inkscape:deskcolor="#d1d1d1"
     showgrid="false"
     inkscape:zoom="1.4980469"
     inkscape:cx="253.32985"
     inkscape:cy="256.66753"
     inkscape:window-width="1920"
     inkscape:window-height="1043"
     inkscape:window-x="0"
     inkscape:window-y="0"
     inkscape:window-maximized="1"
     inkscape:current-layer="svg16" />
  <rect
     width="512"
     height="512"
     rx="0"
     fill="#fafcfc"
     id="rect2"
     x="0"
     y="0" />
  <g
     id="g862"
     transform="matrix(1.086244,0,0,1.086244,-30.242995,-31.476632)">
    <path
       d="m 76.104852,190.68304 q 37.482288,-35.13964 74.964578,0 37.48229,35.13965 74.96457,0 37.48229,-35.13964 74.96458,0 37.48229,35.13965 74.96458,0 37.48229,-35.13964 74.96458,0"
       fill="none"
       stroke="#0a9396"
       stroke-width="14.0559"
       stroke-linecap="round"
       stroke-linejoin="round"
       id="path6" />
    <path
       d="m 76.104852,278.53216 q 46.852858,40.99625 93.705718,0 46.85286,-40.99626 93.70572,0 46.85286,40.99625 93.70573,0 46.85286,-40.99626 93.70572,0"
       fill="none"
       stroke="#0a9396"
       stroke-width="14.0559"
       stroke-linecap="round"
       stroke-linejoin="round"
       id="path8" />
    <path
       d="m 76.104852,366.38127 q 37.482288,-23.42643 74.964578,0 37.48229,23.42643 74.96457,0 37.48229,-23.42643 74.96458,0 37.48229,23.42643 74.96458,0 37.48229,-23.42643 74.96458,0"
       fill="none"
       stroke="#0a9396"
       stroke-width="14.0559"
       stroke-linecap="round"
       stroke-linejoin="round"
       id="path10" />
    <line
       x1="262.5878"
       y1="137.97357"
       x2="262.5878"
       y2="401.5209"
       stroke="#0a9396"
       stroke-width="10"
       stroke-linecap="round"
       id="line854"
       style="stroke:#ffffff;stroke-width:24.1292;stroke-dasharray:none;stroke-opacity:1" />
    <line
       x1="262.5878"
       y1="137.97357"
       x2="262.5878"
       y2="401.5209"
       stroke="#0a9396"
       stroke-width="11.7132"
       stroke-linecap="round"
       id="line12"
       style="stroke:#0a9396;stroke-opacity:1" />
    <circle
       cx="262.5878"
       cy="137.97357"
       r="16.398502"
       fill="#fafcfc"
       stroke="#0a9396"
       stroke-width="11.7132"
       id="circle14" />
  </g>
</svg>
